<?xml version="1.0" encoding="utf-8"?>
<!-- Generator: Adobe Illustrator 22.0.0, SVG Export Plug-In . SVG Version: 6.00 Build 0)  -->
<svg version="1.1" id="Layer_1" xmlns="http://www.w3.org/2000/svg" xmlns:xlink="http://www.w3.org/1999/xlink" x="0px" y="0px"
	 viewBox="0 0 29 30" style="enable-background:new 0 0 29 30;" xml:space="preserve">
<style type="text/css">
	.st0{fill-rule:evenodd;clip-rule:evenodd;fill:#9E9FA1;}
	.st1{fill-rule:evenodd;clip-rule:evenodd;fill:#E02527;}
</style>
<g>
	<path class="st0" d="M1,15C1,7.3,7.1,1,14.6,1c6.1,0,11.3,4.1,13,9.9h-4c-1.5-3.6-5-6-9-6C9.2,4.9,4.7,9.4,4.7,15
		s4.4,10.2,9.9,10.2c4,0,7.5-2.5,9-6h4c-1.7,5.7-6.9,9.9-13,9.9C7.1,29,1,22.7,1,15z"/>
	<polygon class="st1" points="12.8,12.6 28,12.6 28,16.4 12.8,16.4 	"/>
</g>
</svg>
