<?xml version="1.0" encoding="utf-8"?>
<!-- Generator: Adobe Illustrator 21.1.0, SVG Export Plug-In . SVG Version: 6.00 Build 0)  -->
<svg version="1.1" id="Layer_1" xmlns="http://www.w3.org/2000/svg" xmlns:xlink="http://www.w3.org/1999/xlink" x="0px" y="0px"
	 viewBox="0 0 48 48" style="enable-background:new 0 0 48 48;" xml:space="preserve">
<style type="text/css">
	.st0{fill:none;}
	.st1{fill:#969699;}
</style>
<path class="st0" d="M0,0h48v48H0V0z"/>
<path class="st1" d="M38,6h-8.4c-0.8-2.3-3-4-5.6-4s-4.8,1.7-5.6,4H10c-2.2,0-4,1.8-4,4v28c0,2.2,1.8,4,4,4h28c2.2,0,4-1.8,4-4V10
	C42,7.8,40.2,6,38,6z M24,6c1.1,0,2,0.9,2,2s-0.9,2-2,2s-2-0.9-2-2S22.9,6,24,6z M28,34H14v-4h14V34z M34,26H14v-4h20V26z M34,18H14
	v-4h20V18z"/>
</svg>
