<?xml version="1.0" encoding="utf-8"?>
<!-- Generator: Adobe Illustrator 21.1.0, SVG Export Plug-In . SVG Version: 6.00 Build 0)  -->
<svg version="1.1" id="Layer_1" xmlns="http://www.w3.org/2000/svg" xmlns:xlink="http://www.w3.org/1999/xlink" x="0px" y="0px"
	 viewBox="0 0 48 48" style="enable-background:new 0 0 48 48;" xml:space="preserve">
<style type="text/css">
	.st0{fill:none;}
	.st1{fill:#969699;}
</style>
<path class="st0" d="M0,0h48v48H0V0z"/>
<path class="st1" d="M32,22c3.3,0,6-2.7,6-6s-2.7-6-6-6s-6,2.7-6,6S28.7,22,32,22z M16,22c3.3,0,6-2.7,6-6s-2.7-6-6-6s-6,2.7-6,6
	S12.7,22,16,22z M16,26c-4.7,0-14,2.3-14,7v5h28v-5C30,28.3,20.7,26,16,26z M32,26c-0.6,0-1.2,0-1.9,0.1C32.4,27.8,34,30,34,33v5h12
	v-5C46,28.3,36.7,26,32,26z"/>
</svg>
